<svg xmlns="http://www.w3.org/2000/svg" width="40" height="40" viewBox="0 0 40 40" fill="none">
  <path d="M24.3666 20.0384C23.2413 21.0134 21.822 21.5836 20.335 21.6582C18.8479 21.7328 17.3787 21.3074 16.1615 20.4499C14.9443 19.5924 14.0492 18.352 13.6189 16.9266C13.1886 15.5012 13.2478 13.9728 13.7871 12.585C14.3265 11.1972 15.3149 10.0299 16.5948 9.26912C17.8748 8.50837 19.3725 8.19799 20.8493 8.38745C22.3262 8.57691 23.6971 9.25531 24.7435 10.3145C25.79 11.3737 26.4517 12.7527 26.6233 14.2317C27.2166 17.2484 27.21 20.8434 25.85 24.0651C24.4133 27.4651 21.515 30.3317 16.5666 31.6267C16.4073 31.6701 16.2409 31.6814 16.0772 31.6601C15.9134 31.6387 15.7555 31.5852 15.6126 31.5025C15.4696 31.4198 15.3445 31.3095 15.2444 31.1782C15.1443 31.0468 15.0712 30.897 15.0294 30.7372C14.9875 30.5775 14.9778 30.411 15.0006 30.2474C15.0235 30.0839 15.0786 29.9265 15.1626 29.7843C15.2467 29.6422 15.358 29.5181 15.4903 29.4192C15.6226 29.3204 15.7732 29.2487 15.9333 29.2084C20.1516 28.1034 22.42 25.7584 23.5466 23.0917C23.953 22.1144 24.2287 21.0878 24.3666 20.0384Z" fill="url(#paint0_linear_1_530)"/>
  <defs>
    <linearGradient id="paint0_linear_1_530" x1="26.9991" y1="8.33325" x2="6.64726" y2="20.25" gradientUnits="userSpaceOnUse">
      <stop stop-color="#F76680"/>
      <stop offset="1" stop-color="#57007B"/>
    </linearGradient>
  </defs>
</svg>